<mxfile host="app.diagrams.net" modified="2024-05-25T10:03:55.912Z" agent="Mozilla/5.0 (Windows NT 10.0; Win64; x64) AppleWebKit/537.36 (KHTML, like Gecko) Chrome/125.0.0.0 Safari/537.36 Edg/125.0.0.0" etag="rulMmwGZZapRXXITUpEV" version="24.4.7" type="github">
  <diagram name="Page-1" id="jH8CvweU24eM2hz8xm73">
    <mxGraphModel dx="792" dy="453" grid="1" gridSize="10" guides="1" tooltips="1" connect="1" arrows="1" fold="1" page="1" pageScale="1" pageWidth="850" pageHeight="1100" math="0" shadow="0">
      <root>
        <mxCell id="0" />
        <mxCell id="1" parent="0" />
        <mxCell id="0I86xra48BpHjk5siXPC-4" value="" style="edgeStyle=orthogonalEdgeStyle;rounded=0;orthogonalLoop=1;jettySize=auto;html=1;" edge="1" parent="1" source="0I86xra48BpHjk5siXPC-1" target="0I86xra48BpHjk5siXPC-2">
          <mxGeometry relative="1" as="geometry">
            <Array as="points">
              <mxPoint x="370" y="230" />
              <mxPoint x="370" y="230" />
            </Array>
          </mxGeometry>
        </mxCell>
        <mxCell id="0I86xra48BpHjk5siXPC-1" value="Nhân viên&amp;nbsp;&lt;br&gt;phụ trách" style="rounded=1;whiteSpace=wrap;html=1;" vertex="1" parent="1">
          <mxGeometry x="340" y="140" width="120" height="60" as="geometry" />
        </mxCell>
        <mxCell id="0I86xra48BpHjk5siXPC-5" value="" style="edgeStyle=orthogonalEdgeStyle;rounded=0;orthogonalLoop=1;jettySize=auto;html=1;" edge="1" parent="1" source="0I86xra48BpHjk5siXPC-2" target="0I86xra48BpHjk5siXPC-1">
          <mxGeometry relative="1" as="geometry">
            <Array as="points">
              <mxPoint x="420" y="230" />
              <mxPoint x="420" y="230" />
            </Array>
          </mxGeometry>
        </mxCell>
        <mxCell id="0I86xra48BpHjk5siXPC-6" value="" style="edgeStyle=orthogonalEdgeStyle;rounded=0;orthogonalLoop=1;jettySize=auto;html=1;" edge="1" parent="1" source="0I86xra48BpHjk5siXPC-2" target="0I86xra48BpHjk5siXPC-3">
          <mxGeometry relative="1" as="geometry">
            <Array as="points">
              <mxPoint x="380" y="370" />
              <mxPoint x="380" y="370" />
            </Array>
          </mxGeometry>
        </mxCell>
        <mxCell id="0I86xra48BpHjk5siXPC-15" value="" style="edgeStyle=orthogonalEdgeStyle;rounded=0;orthogonalLoop=1;jettySize=auto;html=1;" edge="1" parent="1" source="0I86xra48BpHjk5siXPC-2" target="0I86xra48BpHjk5siXPC-13">
          <mxGeometry relative="1" as="geometry" />
        </mxCell>
        <mxCell id="0I86xra48BpHjk5siXPC-2" value="Tính doanh thu&lt;br&gt;hàng năm" style="ellipse;whiteSpace=wrap;html=1;" vertex="1" parent="1">
          <mxGeometry x="340" y="260" width="120" height="80" as="geometry" />
        </mxCell>
        <mxCell id="0I86xra48BpHjk5siXPC-7" value="" style="edgeStyle=orthogonalEdgeStyle;rounded=0;orthogonalLoop=1;jettySize=auto;html=1;" edge="1" parent="1" source="0I86xra48BpHjk5siXPC-3" target="0I86xra48BpHjk5siXPC-2">
          <mxGeometry relative="1" as="geometry">
            <Array as="points">
              <mxPoint x="420" y="380" />
              <mxPoint x="420" y="380" />
            </Array>
          </mxGeometry>
        </mxCell>
        <mxCell id="0I86xra48BpHjk5siXPC-3" value="" style="shape=partialRectangle;whiteSpace=wrap;html=1;left=0;right=0;fillColor=none;" vertex="1" parent="1">
          <mxGeometry x="350" y="400" width="100" height="30" as="geometry" />
        </mxCell>
        <mxCell id="0I86xra48BpHjk5siXPC-8" value="D1" style="text;html=1;align=center;verticalAlign=middle;resizable=0;points=[];autosize=1;strokeColor=none;fillColor=none;" vertex="1" parent="1">
          <mxGeometry x="330" y="208" width="40" height="30" as="geometry" />
        </mxCell>
        <mxCell id="0I86xra48BpHjk5siXPC-9" value="D6" style="text;html=1;align=center;verticalAlign=middle;resizable=0;points=[];autosize=1;strokeColor=none;fillColor=none;" vertex="1" parent="1">
          <mxGeometry x="420" y="218" width="40" height="30" as="geometry" />
        </mxCell>
        <mxCell id="0I86xra48BpHjk5siXPC-10" value="D4" style="text;html=1;align=center;verticalAlign=middle;resizable=0;points=[];autosize=1;strokeColor=none;fillColor=none;" vertex="1" parent="1">
          <mxGeometry x="350" y="348" width="40" height="30" as="geometry" />
        </mxCell>
        <mxCell id="0I86xra48BpHjk5siXPC-11" value="D3" style="text;html=1;align=center;verticalAlign=middle;resizable=0;points=[];autosize=1;strokeColor=none;fillColor=none;" vertex="1" parent="1">
          <mxGeometry x="410" y="348" width="40" height="30" as="geometry" />
        </mxCell>
        <mxCell id="0I86xra48BpHjk5siXPC-14" value="" style="edgeStyle=orthogonalEdgeStyle;rounded=0;orthogonalLoop=1;jettySize=auto;html=1;" edge="1" parent="1" source="0I86xra48BpHjk5siXPC-12" target="0I86xra48BpHjk5siXPC-2">
          <mxGeometry relative="1" as="geometry" />
        </mxCell>
        <mxCell id="0I86xra48BpHjk5siXPC-12" value="Thiết bị nhập&amp;nbsp;" style="rounded=1;whiteSpace=wrap;html=1;" vertex="1" parent="1">
          <mxGeometry x="160" y="270" width="120" height="60" as="geometry" />
        </mxCell>
        <mxCell id="0I86xra48BpHjk5siXPC-13" value="Thiết bị Xuất" style="rounded=1;whiteSpace=wrap;html=1;" vertex="1" parent="1">
          <mxGeometry x="510" y="270" width="120" height="60" as="geometry" />
        </mxCell>
        <mxCell id="0I86xra48BpHjk5siXPC-16" value="D2" style="text;html=1;align=center;verticalAlign=middle;resizable=0;points=[];autosize=1;strokeColor=none;fillColor=none;" vertex="1" parent="1">
          <mxGeometry x="280" y="278" width="40" height="30" as="geometry" />
        </mxCell>
        <mxCell id="0I86xra48BpHjk5siXPC-17" value="D5" style="text;html=1;align=center;verticalAlign=middle;resizable=0;points=[];autosize=1;strokeColor=none;fillColor=none;" vertex="1" parent="1">
          <mxGeometry x="470" y="278" width="40" height="30" as="geometry" />
        </mxCell>
      </root>
    </mxGraphModel>
  </diagram>
</mxfile>
